<svg xmlns="http://www.w3.org/2000/svg" version="1.1" xmlns:xlink="http://www.w3.org/1999/xlink" xmlns:svgjs="http://svgjs.com/svgjs" width="1440" height="560" preserveAspectRatio="none" viewBox="0 0 1440 560"><g mask="url(&quot;#SvgjsMask1007&quot;)" fill="none"><rect width="1440" height="560" x="0" y="0" fill="#0e2a47"></rect><path d="M139.703,302.501C197.566,301.661,251.408,271.002,279.256,220.274C306.137,171.307,297.676,112.99,270.541,64.164C242.48,13.673,197.466,-31.265,139.703,-30.831C82.491,-30.401,40.746,16.505,12.23,66.106C-16.171,115.506,-34.095,174.276,-7.05,224.431C21.137,276.703,80.322,303.363,139.703,302.501" fill="rgba(28, 83, 142, 0.4)" class="triangle-float3"></path><path d="M185.10889627630874 83.44294307350373L93.60953839378422-57.45371234132753-47.28711702104704 34.04564554119699 44.21224086147748 174.94230095602825z" fill="rgba(28, 83, 142, 0.4)" class="triangle-float2"></path><path d="M119.087,261.306C170.706,261.795,221.622,237.866,246.094,192.414C269.534,148.879,256.468,96.824,230.2,54.935C205.761,15.963,165.053,-11.922,119.087,-10.124C75.701,-8.427,44.791,26.074,22.072,63.075C-2.153,102.528,-24.174,148.465,-3.823,190.049C18.489,235.639,68.332,260.826,119.087,261.306" fill="rgba(28, 83, 142, 0.4)" class="triangle-float3"></path><path d="M1346.258,71.801C1364.937,71.955,1381.266,60.038,1390.366,43.724C1399.225,27.843,1399.874,8.291,1390.31,-7.176C1381.186,-21.931,1363.596,-28.202,1346.258,-27.604C1330.013,-27.043,1315.61,-18.202,1307.175,-4.307C1298.375,10.188,1295.645,27.923,1303.391,43.007C1311.819,59.419,1327.81,71.649,1346.258,71.801" fill="rgba(28, 83, 142, 0.4)" class="triangle-float2"></path><path d="M1435.019,226.748C1480.868,226.645,1530.933,215.299,1552.352,174.761C1572.905,135.863,1547.694,92.764,1526.05,54.462C1503.877,15.225,1480.08,-32.006,1435.019,-32.872C1389.169,-33.753,1360.368,10.968,1337.718,50.842C1315.449,90.045,1294.95,135.835,1316.773,175.288C1339.073,215.603,1388.947,226.851,1435.019,226.748" fill="rgba(28, 83, 142, 0.4)" class="triangle-float2"></path><path d="M1272.0633622146172-13.945774307861189L1309.8551393443865 149.7483965760583 1473.549310228306 111.95661944628894 1435.7575330985367-51.73755143763057z" fill="rgba(28, 83, 142, 0.4)" class="triangle-float2"></path><path d="M131.513,708.275C185.662,708.666,246.025,708.015,276.171,663.032C308.953,614.115,305.192,547.07,272.26,498.253C242.44,454.049,184.827,447.676,131.513,448.596C80.327,449.479,27.264,460.328,-1.064,502.97C-32.345,550.056,-40.24,613.481,-9.574,660.97C19.266,705.631,78.35,707.892,131.513,708.275" fill="rgba(28, 83, 142, 0.4)" class="triangle-float1"></path><path d="M-5.232176039114037 433.56043917920795L34.54618001049917 621.5838246957477 161.33738948792484 511.36590782534245z" fill="rgba(28, 83, 142, 0.4)" class="triangle-float1"></path><path d="M-27.53173961129219 448.0773984296137L-50.81784898288123 557.6299297118 125.15400262619264 537.7828281280904z" fill="rgba(28, 83, 142, 0.4)" class="triangle-float2"></path><path d="M1411.66,642.308C1449.541,643.132,1481.121,615.489,1498.934,582.047C1515.655,550.657,1512.959,514.189,1496.773,482.52C1478.728,447.213,1451.265,413.199,1411.66,411.291C1369.434,409.256,1329.473,435.523,1311.045,473.57C1294.436,507.861,1311.212,545.661,1330.726,578.387C1349.596,610.033,1374.824,641.506,1411.66,642.308" fill="rgba(28, 83, 142, 0.4)" class="triangle-float3"></path><path d="M1256.5042956467855 538.1623710198809L1401.9965634825712 622.1623710198809 1485.9965634825712 476.67010318409524 1340.5042956467855 392.6701031840952z" fill="rgba(28, 83, 142, 0.4)" class="triangle-float1"></path><path d="M1343.21183771811 629.5330555666054L1492.9009337817558 553.2626516103616 1266.9414337618662 479.8439595029596z" fill="rgba(28, 83, 142, 0.4)" class="triangle-float2"></path></g><defs><mask id="SvgjsMask1007"><rect width="1440" height="560" fill="#ffffff"></rect></mask></defs></svg>