<svg xmlns="http://www.w3.org/2000/svg" version="1.1" xmlns:xlink="http://www.w3.org/1999/xlink" xmlns:svgjs="http://svgjs.com/svgjs" width="1440" height="250" preserveAspectRatio="none" viewBox="0 0 1440 250"><g mask="url(&quot;#SvgjsMask1011&quot;)" fill="none"><rect width="1440" height="250" x="0" y="0" fill="#0e2a47"></rect><path d="M39 250L289 0L385 0L135 250z" fill="url(#SvgjsLinearGradient1012)"></path><path d="M253.60000000000002 250L503.6 0L586.1 0L336.1 250z" fill="url(#SvgjsLinearGradient1012)"></path><path d="M498.20000000000005 250L748.2 0L805.2 0L555.2 250z" fill="url(#SvgjsLinearGradient1012)"></path><path d="M737.8000000000001 250L987.8000000000001 0L1121.3000000000002 0L871.3000000000001 250z" fill="url(#SvgjsLinearGradient1012)"></path><path d="M1434 250L1184 0L933.5 0L1183.5 250z" fill="url(#SvgjsLinearGradient1013)"></path><path d="M1197.4 250L947.4000000000001 0L624.9000000000001 0L874.9000000000001 250z" fill="url(#SvgjsLinearGradient1013)"></path><path d="M950.8 250L700.8 0L361.79999999999995 0L611.8 250z" fill="url(#SvgjsLinearGradient1013)"></path><path d="M707.1999999999999 250L457.19999999999993 0L194.69999999999993 0L444.69999999999993 250z" fill="url(#SvgjsLinearGradient1013)"></path><path d="M1211.4520091243378 250L1440 21.452009124337707L1440 250z" fill="url(#SvgjsLinearGradient1012)"></path><path d="M0 250L228.5479908756623 250L 0 21.452009124337707z" fill="url(#SvgjsLinearGradient1013)"></path></g><defs><mask id="SvgjsMask1011"><rect width="1440" height="250" fill="#ffffff"></rect></mask><linearGradient x1="0%" y1="100%" x2="100%" y2="0%" id="SvgjsLinearGradient1012"><stop stop-color="rgba(15, 70, 185, 0.2)" offset="0"></stop><stop stop-opacity="0" stop-color="rgba(15, 70, 185, 0.2)" offset="0.66"></stop></linearGradient><linearGradient x1="100%" y1="100%" x2="0%" y2="0%" id="SvgjsLinearGradient1013"><stop stop-color="rgba(15, 70, 185, 0.2)" offset="0"></stop><stop stop-opacity="0" stop-color="rgba(15, 70, 185, 0.2)" offset="0.66"></stop></linearGradient></defs></svg>