<svg xmlns="http://www.w3.org/2000/svg" version="1.1" xmlns:xlink="http://www.w3.org/1999/xlink" xmlns:svgjs="http://svgjs.com/svgjs" width="1440" height="560" preserveAspectRatio="none" viewBox="0 0 1440 560"><g mask="url(&quot;#SvgjsMask1010&quot;)" fill="none"><rect width="1440" height="560" x="0" y="0" fill="url(#SvgjsLinearGradient1011)"></rect><path d="M1440 0L958.47 0L1440 119.41z" fill="rgba(255, 255, 255, .1)"></path><path d="M958.47 0L1440 119.41L1440 202.41L493.46000000000004 0z" fill="rgba(255, 255, 255, .075)"></path><path d="M493.46000000000004 0L1440 202.41L1440 296.28999999999996L204.38000000000005 0z" fill="rgba(255, 255, 255, .05)"></path><path d="M204.3800000000001 0L1440 296.28999999999996L1440 463.52L127.44000000000011 0z" fill="rgba(255, 255, 255, .025)"></path><path d="M0 560L564.11 560L0 524.61z" fill="rgba(0, 0, 0, .1)"></path><path d="M0 524.61L564.11 560L689.04 560L0 394.59000000000003z" fill="rgba(0, 0, 0, .075)"></path><path d="M0 394.59L689.04 560L787.24 560L0 204.39z" fill="rgba(0, 0, 0, .05)"></path><path d="M0 204.39L787.24 560L963.76 560L0 182.35z" fill="rgba(0, 0, 0, .025)"></path></g><defs><mask id="SvgjsMask1010"><rect width="1440" height="560" fill="#ffffff"></rect></mask><linearGradient x1="15.28%" y1="-39.29%" x2="84.72%" y2="139.29%" gradientUnits="userSpaceOnUse" id="SvgjsLinearGradient1011"><stop stop-color="#0e2a47" offset="0"></stop><stop stop-color="rgba(0, 41, 158, 1)" offset="1"></stop></linearGradient></defs></svg>