<svg xmlns="http://www.w3.org/2000/svg" version="1.1" xmlns:xlink="http://www.w3.org/1999/xlink" xmlns:svgjs="http://svgjs.com/svgjs" width="1440" height="560" preserveAspectRatio="none" viewBox="0 0 1440 560"><g mask="url(&quot;#SvgjsMask1003&quot;)" fill="none"><rect width="1440" height="560" x="0" y="0" fill="url(#SvgjsLinearGradient1004)"></rect><path d="M -621.1336982036447,262 C -525.13,304.6 -333.13,511.4 -141.13369820364468,475 C 50.87,438.6 146.87,101.4 338.8663017963553,80 C 530.87,58.6 626.87,337.4 818.8663017963553,368 C 1010.87,398.6 1174.64,224.8 1298.8663017963554,233 C 1423.09,241.2 1411.77,373.8 1440,409" stroke="rgba(51, 121, 194, 0.58)" stroke-width="2"></path><path d="M -445.2639757956519,198 C -349.26,240.6 -157.26,401.6 34.736024204348084,411 C 226.74,420.4 322.74,260.2 514.736024204348,245 C 706.74,229.8 802.74,334.2 994.736024204348,335 C 1186.74,335.8 1385.68,218.8 1474.736024204348,249 C 1563.79,279.2 1446.95,438.6 1440,486" stroke="rgba(51, 121, 194, 0.58)" stroke-width="2"></path><path d="M -612.5814059664112,244 C -516.58,266 -324.58,370.2 -132.58140596641127,354 C 59.42,337.8 155.42,149.2 347.41859403358876,163 C 539.42,176.8 635.42,424.6 827.4185940335888,423 C 1019.42,421.4 1184.9,143.2 1307.4185940335888,155 C 1429.93,166.8 1413.48,416.6 1440,482" stroke="rgba(51, 121, 194, 0.58)" stroke-width="2"></path><path d="M -955.8326408172618,138 C -859.83,210.8 -667.83,500.8 -475.83264081726185,502 C -283.83,503.2 -187.83,183.8 4.167359182738153,144 C 196.17,104.2 292.17,289.4 484.16735918273815,303 C 676.17,316.6 773,196.2 964.1673591827382,212 C 1155.33,227.8 1344.83,348 1440,382" stroke="rgba(51, 121, 194, 0.58)" stroke-width="2"></path></g><defs><mask id="SvgjsMask1003"><rect width="1440" height="560" fill="#ffffff"></rect></mask><linearGradient x1="15.28%" y1="-39.29%" x2="84.72%" y2="139.29%" gradientUnits="userSpaceOnUse" id="SvgjsLinearGradient1004"><stop stop-color="#0e2a47" offset="0"></stop><stop stop-color="#00459e" offset="1"></stop></linearGradient></defs></svg>