<svg xmlns="http://www.w3.org/2000/svg" version="1.1" xmlns:xlink="http://www.w3.org/1999/xlink" xmlns:svgjs="http://svgjs.com/svgjs" width="1440" height="560" preserveAspectRatio="none" viewBox="0 0 1440 560"><g mask="url(&quot;#SvgjsMask1007&quot;)" fill="none"><rect width="1440" height="560" x="0" y="0" fill="#0e2a47"></rect><path d="M32.66 -69.91L97.61 -32.41L97.61 42.59L32.66 80.09L-32.29 42.59L-32.29 -32.41zM97.61 267.59L162.57 305.09L162.57 380.09L97.61 417.59L32.66 380.09L32.66 305.09zM32.66 380.09L97.61 417.59L97.61 492.59L32.66 530.09L-32.29 492.59L-32.29 417.59zM97.61 492.59L162.57 530.09L162.57 605.09L97.61 642.59L32.66 605.09L32.66 530.09zM162.57 -69.91L227.52 -32.41L227.52 42.59L162.57 80.09L97.61 42.59L97.61 -32.41zM227.52 42.59L292.48 80.09L292.48 155.09L227.52 192.59L162.57 155.09L162.57 80.09zM227.52 267.59L292.48 305.09L292.48 380.09L227.52 417.59L162.57 380.09L162.57 305.09zM227.52 492.59L292.48 530.09L292.48 605.09L227.52 642.59L162.57 605.09L162.57 530.09zM292.48 -69.91L357.43 -32.41L357.43 42.59L292.48 80.09L227.52 42.59L227.52 -32.41zM357.43 42.59L422.38 80.09L422.38 155.09L357.43 192.59L292.48 155.09L292.48 80.09zM357.43 492.59L422.38 530.09L422.38 605.09L357.43 642.59L292.48 605.09L292.48 530.09zM422.38 -69.91L487.34 -32.41L487.34 42.59L422.38 80.09L357.43 42.59L357.43 -32.41zM422.38 380.09L487.34 417.59L487.34 492.59L422.38 530.09L357.43 492.59L357.43 417.59zM552.29 -69.91L617.24 -32.41L617.24 42.59L552.29 80.09L487.34 42.59L487.34 -32.41zM617.24 42.59L682.2 80.09L682.2 155.09L617.24 192.59L552.29 155.09L552.29 80.09zM617.24 267.59L682.2 305.09L682.2 380.09L617.24 417.59L552.29 380.09L552.29 305.09zM552.29 380.09L617.24 417.59L617.24 492.59L552.29 530.09L487.34 492.59L487.34 417.59zM617.24 492.59L682.2 530.09L682.2 605.09L617.24 642.59L552.29 605.09L552.29 530.09zM682.2 -69.91L747.15 -32.41L747.15 42.59L682.2 80.09L617.24 42.59L617.24 -32.41zM682.2 380.09L747.15 417.59L747.15 492.59L682.2 530.09L617.24 492.59L617.24 417.59zM812.1 155.09L877.06 192.59L877.06 267.59L812.1 305.09L747.15 267.59L747.15 192.59zM942.01 155.09L1006.97 192.59L1006.97 267.59L942.01 305.09L877.06 267.59L877.06 192.59zM1006.97 492.59L1071.92 530.09L1071.92 605.09L1006.97 642.59L942.01 605.09L942.01 530.09zM1071.92 -69.91L1136.87 -32.41L1136.87 42.59L1071.92 80.09L1006.97 42.59L1006.97 -32.41zM1136.87 42.59L1201.83 80.09L1201.83 155.09L1136.87 192.59L1071.92 155.09L1071.92 80.09zM1071.92 155.09L1136.87 192.59L1136.87 267.59L1071.92 305.09L1006.97 267.59L1006.97 192.59zM1071.92 380.09L1136.87 417.59L1136.87 492.59L1071.92 530.09L1006.97 492.59L1006.97 417.59zM1136.87 492.59L1201.83 530.09L1201.83 605.09L1136.87 642.59L1071.92 605.09L1071.92 530.09zM1201.83 155.09L1266.78 192.59L1266.78 267.59L1201.83 305.09L1136.87 267.59L1136.87 192.59zM1266.78 492.59L1331.73 530.09L1331.73 605.09L1266.78 642.59L1201.83 605.09L1201.83 530.09zM1331.74 -69.91L1396.69 -32.41L1396.69 42.59L1331.74 80.09L1266.78 42.59L1266.78 -32.41zM1396.69 42.59L1461.64 80.09L1461.64 155.09L1396.69 192.59L1331.74 155.09L1331.74 80.09zM1331.74 155.09L1396.69 192.59L1396.69 267.59L1331.74 305.09L1266.78 267.59L1266.78 192.59zM1526.6 267.59L1591.55 305.09L1591.55 380.09L1526.6 417.59L1461.64 380.09L1461.64 305.09zM1461.64 380.09L1526.6 417.59L1526.6 492.59L1461.64 530.09L1396.69 492.59L1396.69 417.59zM1526.6 492.59L1591.55 530.09L1591.55 605.09L1526.6 642.59L1461.64 605.09L1461.64 530.09z" stroke="#03305d" stroke-width="2"></path><path d="M25.16 -69.91 a7.5 7.5 0 1 0 15 0 a7.5 7.5 0 1 0 -15 0zM90.11 -32.41 a7.5 7.5 0 1 0 15 0 a7.5 7.5 0 1 0 -15 0zM90.11 42.59 a7.5 7.5 0 1 0 15 0 a7.5 7.5 0 1 0 -15 0zM25.16 80.09 a7.5 7.5 0 1 0 15 0 a7.5 7.5 0 1 0 -15 0zM-39.79 42.59 a7.5 7.5 0 1 0 15 0 a7.5 7.5 0 1 0 -15 0zM-39.79 -32.41 a7.5 7.5 0 1 0 15 0 a7.5 7.5 0 1 0 -15 0zM90.11 267.59 a7.5 7.5 0 1 0 15 0 a7.5 7.5 0 1 0 -15 0zM155.07 305.09 a7.5 7.5 0 1 0 15 0 a7.5 7.5 0 1 0 -15 0zM155.07 380.09 a7.5 7.5 0 1 0 15 0 a7.5 7.5 0 1 0 -15 0zM90.11 417.59 a7.5 7.5 0 1 0 15 0 a7.5 7.5 0 1 0 -15 0zM25.16 380.09 a7.5 7.5 0 1 0 15 0 a7.5 7.5 0 1 0 -15 0zM25.16 305.09 a7.5 7.5 0 1 0 15 0 a7.5 7.5 0 1 0 -15 0zM90.11 492.59 a7.5 7.5 0 1 0 15 0 a7.5 7.5 0 1 0 -15 0zM25.16 530.09 a7.5 7.5 0 1 0 15 0 a7.5 7.5 0 1 0 -15 0zM-39.79 492.59 a7.5 7.5 0 1 0 15 0 a7.5 7.5 0 1 0 -15 0zM-39.79 417.59 a7.5 7.5 0 1 0 15 0 a7.5 7.5 0 1 0 -15 0zM155.07 530.09 a7.5 7.5 0 1 0 15 0 a7.5 7.5 0 1 0 -15 0zM155.07 605.09 a7.5 7.5 0 1 0 15 0 a7.5 7.5 0 1 0 -15 0zM90.11 642.59 a7.5 7.5 0 1 0 15 0 a7.5 7.5 0 1 0 -15 0zM25.16 605.09 a7.5 7.5 0 1 0 15 0 a7.5 7.5 0 1 0 -15 0zM155.07 -69.91 a7.5 7.5 0 1 0 15 0 a7.5 7.5 0 1 0 -15 0zM220.02 -32.41 a7.5 7.5 0 1 0 15 0 a7.5 7.5 0 1 0 -15 0zM220.02 42.59 a7.5 7.5 0 1 0 15 0 a7.5 7.5 0 1 0 -15 0zM155.07 80.09 a7.5 7.5 0 1 0 15 0 a7.5 7.5 0 1 0 -15 0zM284.98 80.09 a7.5 7.5 0 1 0 15 0 a7.5 7.5 0 1 0 -15 0zM284.98 155.09 a7.5 7.5 0 1 0 15 0 a7.5 7.5 0 1 0 -15 0zM220.02 192.59 a7.5 7.5 0 1 0 15 0 a7.5 7.5 0 1 0 -15 0zM155.07 155.09 a7.5 7.5 0 1 0 15 0 a7.5 7.5 0 1 0 -15 0zM220.02 267.59 a7.5 7.5 0 1 0 15 0 a7.5 7.5 0 1 0 -15 0zM284.98 305.09 a7.5 7.5 0 1 0 15 0 a7.5 7.5 0 1 0 -15 0zM284.98 380.09 a7.5 7.5 0 1 0 15 0 a7.5 7.5 0 1 0 -15 0zM220.02 417.59 a7.5 7.5 0 1 0 15 0 a7.5 7.5 0 1 0 -15 0zM220.02 492.59 a7.5 7.5 0 1 0 15 0 a7.5 7.5 0 1 0 -15 0zM284.98 530.09 a7.5 7.5 0 1 0 15 0 a7.5 7.5 0 1 0 -15 0zM284.98 605.09 a7.5 7.5 0 1 0 15 0 a7.5 7.5 0 1 0 -15 0zM220.02 642.59 a7.5 7.5 0 1 0 15 0 a7.5 7.5 0 1 0 -15 0zM284.98 -69.91 a7.5 7.5 0 1 0 15 0 a7.5 7.5 0 1 0 -15 0zM349.93 -32.41 a7.5 7.5 0 1 0 15 0 a7.5 7.5 0 1 0 -15 0zM349.93 42.59 a7.5 7.5 0 1 0 15 0 a7.5 7.5 0 1 0 -15 0zM414.88 80.09 a7.5 7.5 0 1 0 15 0 a7.5 7.5 0 1 0 -15 0zM414.88 155.09 a7.5 7.5 0 1 0 15 0 a7.5 7.5 0 1 0 -15 0zM349.93 192.59 a7.5 7.5 0 1 0 15 0 a7.5 7.5 0 1 0 -15 0zM349.93 492.59 a7.5 7.5 0 1 0 15 0 a7.5 7.5 0 1 0 -15 0zM414.88 530.09 a7.5 7.5 0 1 0 15 0 a7.5 7.5 0 1 0 -15 0zM414.88 605.09 a7.5 7.5 0 1 0 15 0 a7.5 7.5 0 1 0 -15 0zM349.93 642.59 a7.5 7.5 0 1 0 15 0 a7.5 7.5 0 1 0 -15 0zM414.88 -69.91 a7.5 7.5 0 1 0 15 0 a7.5 7.5 0 1 0 -15 0zM479.84 -32.41 a7.5 7.5 0 1 0 15 0 a7.5 7.5 0 1 0 -15 0zM479.84 42.59 a7.5 7.5 0 1 0 15 0 a7.5 7.5 0 1 0 -15 0zM414.88 380.09 a7.5 7.5 0 1 0 15 0 a7.5 7.5 0 1 0 -15 0zM479.84 417.59 a7.5 7.5 0 1 0 15 0 a7.5 7.5 0 1 0 -15 0zM479.84 492.59 a7.5 7.5 0 1 0 15 0 a7.5 7.5 0 1 0 -15 0zM349.93 417.59 a7.5 7.5 0 1 0 15 0 a7.5 7.5 0 1 0 -15 0zM544.79 -69.91 a7.5 7.5 0 1 0 15 0 a7.5 7.5 0 1 0 -15 0zM609.74 -32.41 a7.5 7.5 0 1 0 15 0 a7.5 7.5 0 1 0 -15 0zM609.74 42.59 a7.5 7.5 0 1 0 15 0 a7.5 7.5 0 1 0 -15 0zM544.79 80.09 a7.5 7.5 0 1 0 15 0 a7.5 7.5 0 1 0 -15 0zM674.7 80.09 a7.5 7.5 0 1 0 15 0 a7.5 7.5 0 1 0 -15 0zM674.7 155.09 a7.5 7.5 0 1 0 15 0 a7.5 7.5 0 1 0 -15 0zM609.74 192.59 a7.5 7.5 0 1 0 15 0 a7.5 7.5 0 1 0 -15 0zM544.79 155.09 a7.5 7.5 0 1 0 15 0 a7.5 7.5 0 1 0 -15 0zM609.74 267.59 a7.5 7.5 0 1 0 15 0 a7.5 7.5 0 1 0 -15 0zM674.7 305.09 a7.5 7.5 0 1 0 15 0 a7.5 7.5 0 1 0 -15 0zM674.7 380.09 a7.5 7.5 0 1 0 15 0 a7.5 7.5 0 1 0 -15 0zM609.74 417.59 a7.5 7.5 0 1 0 15 0 a7.5 7.5 0 1 0 -15 0zM544.79 380.09 a7.5 7.5 0 1 0 15 0 a7.5 7.5 0 1 0 -15 0zM544.79 305.09 a7.5 7.5 0 1 0 15 0 a7.5 7.5 0 1 0 -15 0zM609.74 492.59 a7.5 7.5 0 1 0 15 0 a7.5 7.5 0 1 0 -15 0zM544.79 530.09 a7.5 7.5 0 1 0 15 0 a7.5 7.5 0 1 0 -15 0zM674.7 530.09 a7.5 7.5 0 1 0 15 0 a7.5 7.5 0 1 0 -15 0zM674.7 605.09 a7.5 7.5 0 1 0 15 0 a7.5 7.5 0 1 0 -15 0zM609.74 642.59 a7.5 7.5 0 1 0 15 0 a7.5 7.5 0 1 0 -15 0zM544.79 605.09 a7.5 7.5 0 1 0 15 0 a7.5 7.5 0 1 0 -15 0zM674.7 -69.91 a7.5 7.5 0 1 0 15 0 a7.5 7.5 0 1 0 -15 0zM739.65 -32.41 a7.5 7.5 0 1 0 15 0 a7.5 7.5 0 1 0 -15 0zM739.65 42.59 a7.5 7.5 0 1 0 15 0 a7.5 7.5 0 1 0 -15 0zM739.65 417.59 a7.5 7.5 0 1 0 15 0 a7.5 7.5 0 1 0 -15 0zM739.65 492.59 a7.5 7.5 0 1 0 15 0 a7.5 7.5 0 1 0 -15 0zM804.6 155.09 a7.5 7.5 0 1 0 15 0 a7.5 7.5 0 1 0 -15 0zM869.56 192.59 a7.5 7.5 0 1 0 15 0 a7.5 7.5 0 1 0 -15 0zM869.56 267.59 a7.5 7.5 0 1 0 15 0 a7.5 7.5 0 1 0 -15 0zM804.6 305.09 a7.5 7.5 0 1 0 15 0 a7.5 7.5 0 1 0 -15 0zM739.65 267.59 a7.5 7.5 0 1 0 15 0 a7.5 7.5 0 1 0 -15 0zM739.65 192.59 a7.5 7.5 0 1 0 15 0 a7.5 7.5 0 1 0 -15 0zM934.51 155.09 a7.5 7.5 0 1 0 15 0 a7.5 7.5 0 1 0 -15 0zM999.47 192.59 a7.5 7.5 0 1 0 15 0 a7.5 7.5 0 1 0 -15 0zM999.47 267.59 a7.5 7.5 0 1 0 15 0 a7.5 7.5 0 1 0 -15 0zM934.51 305.09 a7.5 7.5 0 1 0 15 0 a7.5 7.5 0 1 0 -15 0zM999.47 492.59 a7.5 7.5 0 1 0 15 0 a7.5 7.5 0 1 0 -15 0zM1064.42 530.09 a7.5 7.5 0 1 0 15 0 a7.5 7.5 0 1 0 -15 0zM1064.42 605.09 a7.5 7.5 0 1 0 15 0 a7.5 7.5 0 1 0 -15 0zM999.47 642.59 a7.5 7.5 0 1 0 15 0 a7.5 7.5 0 1 0 -15 0zM934.51 605.09 a7.5 7.5 0 1 0 15 0 a7.5 7.5 0 1 0 -15 0zM934.51 530.09 a7.5 7.5 0 1 0 15 0 a7.5 7.5 0 1 0 -15 0zM1064.42 -69.91 a7.5 7.5 0 1 0 15 0 a7.5 7.5 0 1 0 -15 0zM1129.37 -32.41 a7.5 7.5 0 1 0 15 0 a7.5 7.5 0 1 0 -15 0zM1129.37 42.59 a7.5 7.5 0 1 0 15 0 a7.5 7.5 0 1 0 -15 0zM1064.42 80.09 a7.5 7.5 0 1 0 15 0 a7.5 7.5 0 1 0 -15 0zM999.47 42.59 a7.5 7.5 0 1 0 15 0 a7.5 7.5 0 1 0 -15 0zM999.47 -32.41 a7.5 7.5 0 1 0 15 0 a7.5 7.5 0 1 0 -15 0zM1194.33 80.09 a7.5 7.5 0 1 0 15 0 a7.5 7.5 0 1 0 -15 0zM1194.33 155.09 a7.5 7.5 0 1 0 15 0 a7.5 7.5 0 1 0 -15 0zM1129.37 192.59 a7.5 7.5 0 1 0 15 0 a7.5 7.5 0 1 0 -15 0zM1064.42 155.09 a7.5 7.5 0 1 0 15 0 a7.5 7.5 0 1 0 -15 0zM1129.37 267.59 a7.5 7.5 0 1 0 15 0 a7.5 7.5 0 1 0 -15 0zM1064.42 305.09 a7.5 7.5 0 1 0 15 0 a7.5 7.5 0 1 0 -15 0zM1064.42 380.09 a7.5 7.5 0 1 0 15 0 a7.5 7.5 0 1 0 -15 0zM1129.37 417.59 a7.5 7.5 0 1 0 15 0 a7.5 7.5 0 1 0 -15 0zM1129.37 492.59 a7.5 7.5 0 1 0 15 0 a7.5 7.5 0 1 0 -15 0zM999.47 417.59 a7.5 7.5 0 1 0 15 0 a7.5 7.5 0 1 0 -15 0zM1194.33 530.09 a7.5 7.5 0 1 0 15 0 a7.5 7.5 0 1 0 -15 0zM1194.33 605.09 a7.5 7.5 0 1 0 15 0 a7.5 7.5 0 1 0 -15 0zM1129.37 642.59 a7.5 7.5 0 1 0 15 0 a7.5 7.5 0 1 0 -15 0zM1259.28 192.59 a7.5 7.5 0 1 0 15 0 a7.5 7.5 0 1 0 -15 0zM1259.28 267.59 a7.5 7.5 0 1 0 15 0 a7.5 7.5 0 1 0 -15 0zM1194.33 305.09 a7.5 7.5 0 1 0 15 0 a7.5 7.5 0 1 0 -15 0zM1259.28 492.59 a7.5 7.5 0 1 0 15 0 a7.5 7.5 0 1 0 -15 0zM1324.23 530.09 a7.5 7.5 0 1 0 15 0 a7.5 7.5 0 1 0 -15 0zM1324.23 605.09 a7.5 7.5 0 1 0 15 0 a7.5 7.5 0 1 0 -15 0zM1259.28 642.59 a7.5 7.5 0 1 0 15 0 a7.5 7.5 0 1 0 -15 0zM1324.24 -69.91 a7.5 7.5 0 1 0 15 0 a7.5 7.5 0 1 0 -15 0zM1389.19 -32.41 a7.5 7.5 0 1 0 15 0 a7.5 7.5 0 1 0 -15 0zM1389.19 42.59 a7.5 7.5 0 1 0 15 0 a7.5 7.5 0 1 0 -15 0zM1324.24 80.09 a7.5 7.5 0 1 0 15 0 a7.5 7.5 0 1 0 -15 0zM1259.28 42.59 a7.5 7.5 0 1 0 15 0 a7.5 7.5 0 1 0 -15 0zM1259.28 -32.41 a7.5 7.5 0 1 0 15 0 a7.5 7.5 0 1 0 -15 0zM1454.14 80.09 a7.5 7.5 0 1 0 15 0 a7.5 7.5 0 1 0 -15 0zM1454.14 155.09 a7.5 7.5 0 1 0 15 0 a7.5 7.5 0 1 0 -15 0zM1389.19 192.59 a7.5 7.5 0 1 0 15 0 a7.5 7.5 0 1 0 -15 0zM1324.24 155.09 a7.5 7.5 0 1 0 15 0 a7.5 7.5 0 1 0 -15 0zM1389.19 267.59 a7.5 7.5 0 1 0 15 0 a7.5 7.5 0 1 0 -15 0zM1324.24 305.09 a7.5 7.5 0 1 0 15 0 a7.5 7.5 0 1 0 -15 0zM1519.1 267.59 a7.5 7.5 0 1 0 15 0 a7.5 7.5 0 1 0 -15 0zM1584.05 305.09 a7.5 7.5 0 1 0 15 0 a7.5 7.5 0 1 0 -15 0zM1584.05 380.09 a7.5 7.5 0 1 0 15 0 a7.5 7.5 0 1 0 -15 0zM1519.1 417.59 a7.5 7.5 0 1 0 15 0 a7.5 7.5 0 1 0 -15 0zM1454.14 380.09 a7.5 7.5 0 1 0 15 0 a7.5 7.5 0 1 0 -15 0zM1454.14 305.09 a7.5 7.5 0 1 0 15 0 a7.5 7.5 0 1 0 -15 0zM1519.1 492.59 a7.5 7.5 0 1 0 15 0 a7.5 7.5 0 1 0 -15 0zM1454.14 530.09 a7.5 7.5 0 1 0 15 0 a7.5 7.5 0 1 0 -15 0zM1389.19 492.59 a7.5 7.5 0 1 0 15 0 a7.5 7.5 0 1 0 -15 0zM1389.19 417.59 a7.5 7.5 0 1 0 15 0 a7.5 7.5 0 1 0 -15 0zM1584.05 530.09 a7.5 7.5 0 1 0 15 0 a7.5 7.5 0 1 0 -15 0zM1584.05 605.09 a7.5 7.5 0 1 0 15 0 a7.5 7.5 0 1 0 -15 0zM1519.1 642.59 a7.5 7.5 0 1 0 15 0 a7.5 7.5 0 1 0 -15 0zM1454.14 605.09 a7.5 7.5 0 1 0 15 0 a7.5 7.5 0 1 0 -15 0z" fill="#03305d"></path><path d="M78.92 52.84L122.22 77.84L122.22 127.84L78.92 152.84L35.62 127.84L35.62 77.84zM35.62 127.84L78.92 152.84L78.92 202.84L35.62 227.84L-7.68 202.84L-7.68 152.84zM78.92 202.84L122.22 227.84L122.22 277.84L78.92 302.84L35.62 277.84L35.62 227.84zM35.62 277.84L78.92 302.84L78.92 352.84L35.62 377.84L-7.68 352.84L-7.68 302.84zM78.92 352.84L122.22 377.84L122.22 427.84L78.92 452.84L35.62 427.84L35.62 377.84zM78.92 502.84L122.22 527.84L122.22 577.84L78.92 602.84L35.62 577.84L35.62 527.84zM122.22 -22.16L165.53 2.84L165.53 52.84L122.22 77.84L78.92 52.84L78.92 2.84zM165.53 202.84L208.83 227.84L208.83 277.84L165.53 302.84L122.22 277.84L122.22 227.84zM122.22 427.84L165.53 452.84L165.53 502.84L122.22 527.84L78.92 502.84L78.92 452.84zM165.53 502.84L208.83 527.84L208.83 577.84L165.53 602.84L122.22 577.84L122.22 527.84zM208.83 127.84L252.13 152.84L252.13 202.84L208.83 227.84L165.53 202.84L165.53 152.84zM252.13 202.84L295.44 227.84L295.44 277.84L252.13 302.84L208.83 277.84L208.83 227.84zM208.83 277.84L252.13 302.84L252.13 352.84L208.83 377.84L165.53 352.84L165.53 302.84zM252.13 502.84L295.44 527.84L295.44 577.84L252.13 602.84L208.83 577.84L208.83 527.84zM295.44 -22.16L338.74 2.84L338.74 52.84L295.44 77.84L252.13 52.84L252.13 2.84zM338.74 52.84L382.04 77.84L382.04 127.84L338.74 152.84L295.44 127.84L295.44 77.84zM338.74 202.84L382.04 227.84L382.04 277.84L338.74 302.84L295.44 277.84L295.44 227.84zM295.44 277.84L338.74 302.84L338.74 352.84L295.44 377.84L252.13 352.84L252.13 302.84zM338.74 502.84L382.04 527.84L382.04 577.84L338.74 602.84L295.44 577.84L295.44 527.84zM382.04 -22.16L425.34 2.84L425.34 52.84L382.04 77.84L338.74 52.84L338.74 2.84zM425.34 202.84L468.65 227.84L468.65 277.84L425.34 302.84L382.04 277.84L382.04 227.84zM425.34 352.84L468.65 377.84L468.65 427.84L425.34 452.84L382.04 427.84L382.04 377.84zM382.04 427.84L425.34 452.84L425.34 502.84L382.04 527.84L338.74 502.84L338.74 452.84zM511.95 52.84L555.25 77.84L555.25 127.84L511.95 152.84L468.65 127.84L468.65 77.84zM468.65 277.84L511.95 302.84L511.95 352.84L468.65 377.84L425.34 352.84L425.34 302.84zM468.65 427.84L511.95 452.84L511.95 502.84L468.65 527.84L425.34 502.84L425.34 452.84zM511.95 502.84L555.25 527.84L555.25 577.84L511.95 602.84L468.65 577.84L468.65 527.84zM555.25 -22.16L598.55 2.84L598.55 52.84L555.25 77.84L511.95 52.84L511.95 2.84zM598.55 52.84L641.86 77.84L641.86 127.84L598.55 152.84L555.25 127.84L555.25 77.84zM598.55 202.84L641.86 227.84L641.86 277.84L598.55 302.84L555.25 277.84L555.25 227.84zM555.25 277.84L598.55 302.84L598.55 352.84L555.25 377.84L511.95 352.84L511.95 302.84zM555.25 427.84L598.55 452.84L598.55 502.84L555.25 527.84L511.95 502.84L511.95 452.84zM641.86 127.84L685.16 152.84L685.16 202.84L641.86 227.84L598.55 202.84L598.55 152.84zM641.86 277.84L685.16 302.84L685.16 352.84L641.86 377.84L598.55 352.84L598.55 302.84zM641.86 427.84L685.16 452.84L685.16 502.84L641.86 527.84L598.55 502.84L598.55 452.84zM771.76 52.84L815.07 77.84L815.07 127.84L771.76 152.84L728.46 127.84L728.46 77.84zM728.46 127.84L771.76 152.84L771.76 202.84L728.46 227.84L685.16 202.84L685.16 152.84zM771.76 202.84L815.07 227.84L815.07 277.84L771.76 302.84L728.46 277.84L728.46 227.84zM728.46 277.84L771.76 302.84L771.76 352.84L728.46 377.84L685.16 352.84L685.16 302.84zM771.76 352.84L815.07 377.84L815.07 427.84L771.76 452.84L728.46 427.84L728.46 377.84zM815.07 -22.16L858.37 2.84L858.37 52.84L815.07 77.84L771.76 52.84L771.76 2.84zM858.37 202.84L901.67 227.84L901.67 277.84L858.37 302.84L815.07 277.84L815.07 227.84zM815.07 277.84L858.37 302.84L858.37 352.84L815.07 377.84L771.76 352.84L771.76 302.84zM858.37 352.84L901.67 377.84L901.67 427.84L858.37 452.84L815.07 427.84L815.07 377.84zM944.97 52.84L988.28 77.84L988.28 127.84L944.97 152.84L901.67 127.84L901.67 77.84zM901.67 277.84L944.97 302.84L944.97 352.84L901.67 377.84L858.37 352.84L858.37 302.84zM901.67 427.84L944.97 452.84L944.97 502.84L901.67 527.84L858.37 502.84L858.37 452.84zM944.97 502.84L988.28 527.84L988.28 577.84L944.97 602.84L901.67 577.84L901.67 527.84zM988.28 -22.16L1031.58 2.84L1031.58 52.84L988.28 77.84L944.97 52.84L944.97 2.84zM1031.58 52.84L1074.88 77.84L1074.88 127.84L1031.58 152.84L988.28 127.84L988.28 77.84zM988.28 127.84L1031.58 152.84L1031.58 202.84L988.28 227.84L944.97 202.84L944.97 152.84zM1031.58 202.84L1074.88 227.84L1074.88 277.84L1031.58 302.84L988.28 277.84L988.28 227.84zM988.28 427.84L1031.58 452.84L1031.58 502.84L988.28 527.84L944.97 502.84L944.97 452.84zM1118.18 202.84L1161.48 227.84L1161.48 277.84L1118.18 302.84L1074.88 277.84L1074.88 227.84zM1074.88 277.84L1118.18 302.84L1118.18 352.84L1074.88 377.84L1031.58 352.84L1031.58 302.84zM1118.18 352.84L1161.48 377.84L1161.48 427.84L1118.18 452.84L1074.88 427.84L1074.88 377.84zM1074.88 427.84L1118.18 452.84L1118.18 502.84L1074.88 527.84L1031.58 502.84L1031.58 452.84zM1161.48 -22.16L1204.79 2.84L1204.79 52.84L1161.48 77.84L1118.18 52.84L1118.18 2.84zM1204.79 52.84L1248.09 77.84L1248.09 127.84L1204.79 152.84L1161.48 127.84L1161.48 77.84zM1161.48 127.84L1204.79 152.84L1204.79 202.84L1161.48 227.84L1118.18 202.84L1118.18 152.84zM1248.09 -22.16L1291.39 2.84L1291.39 52.84L1248.09 77.84L1204.79 52.84L1204.79 2.84zM1378 352.84L1421.3 377.84L1421.3 427.84L1378 452.84L1334.69 427.84L1334.69 377.84zM1464.6 52.84L1507.9 77.84L1507.9 127.84L1464.6 152.84L1421.3 127.84L1421.3 77.84zM1464.6 352.84L1507.9 377.84L1507.9 427.84L1464.6 452.84L1421.3 427.84L1421.3 377.84zM1421.3 427.84L1464.6 452.84L1464.6 502.84L1421.3 527.84L1378 502.84L1378 452.84z" stroke="rgba(6, 80, 156, 0.93)" stroke-width="2"></path></g><defs><mask id="SvgjsMask1007"><rect width="1440" height="560" fill="#ffffff"></rect></mask></defs></svg>